<svg version="1.1" xmlns="http://www.w3.org/2000/svg" width="1046" height="1046" viewBox="0 0 1046 1046">
<path d="M0 0 C14.52 0 29.04 0 44 0 C44.00238835 3.07175065 44.00477671 6.1435013 44.00723743 9.3083353 C44.049435 63.14326358 44.09546409 116.9781873 44.15898132 170.81309509 C44.16047467 172.08012636 44.16047467 172.08012636 44.16199819 173.37275422 C44.18366419 191.73662402 44.20598742 210.10049296 44.22898628 228.46436113 C44.24026334 237.47192746 44.25139539 246.47949395 44.26245117 255.48706055 C44.26410502 256.83149636 44.26410502 256.83149636 44.26579228 258.20309249 C44.30136661 287.17707789 44.32739312 316.15106215 44.34838969 345.12506148 C44.37004409 374.936452 44.40148787 404.74781691 44.44499113 434.55918392 C44.45115204 438.78413495 44.45720275 443.00908612 44.46318626 447.2340374 C44.46436715 448.06544764 44.46554803 448.89685788 44.46676469 449.75346238 C44.48537858 463.05725157 44.4938815 476.36102831 44.49846124 489.66482893 C44.50330297 503.08785337 44.51913435 516.51083104 44.54566566 529.93383039 C44.55971004 537.18710992 44.56921777 544.44031908 44.56500816 551.69361305 C44.54672169 588.67208994 44.79891651 625.58187593 50.6875 662.1875 C50.81183411 662.98811859 50.93616821 663.78873718 51.06427002 664.61361694 C55.31876869 691.92741878 61.59685063 718.66289268 70 745 C70.30873047 745.99290039 70.61746094 746.98580078 70.93554688 748.00878906 C85.59414843 795.09915916 108.1593167 839.0667462 137 879 C133.88372296 872.66120921 130.68198633 866.42339005 127.25 860.25 C93.51549009 797.83545 85.71331286 723.99417563 85.9317627 654.25413513 C85.93723868 651.46619029 85.9411178 648.67824386 85.94499636 645.8902964 C85.95371416 640.1114283 85.96570423 634.33257592 85.98009682 628.55371928 C86.00000932 620.48976086 86.01128119 612.42581283 86.0198822 604.36183357 C86.03159612 593.84639075 86.04587453 583.33095577 86.0634613 572.81552124 C86.06459417 572.13760812 86.06572703 571.45969499 86.06689422 570.76123905 C86.07155884 567.97556765 86.07623931 565.18989628 86.08094468 562.40422495 C86.09357968 554.91442399 86.10557889 547.42462204 86.11757918 539.93482004 C86.13971516 526.12905744 86.16231159 512.32329563 86.18519592 498.51753426 C86.20776392 484.90165304 86.23011159 471.28577148 86.25218201 457.66988945 C86.25356835 456.81468504 86.2549547 455.95948064 86.25638306 455.07836095 C86.2634261 450.7329975 86.27046537 446.38763405 86.27750319 442.04227059 C86.32700947 411.4797585 86.3769841 380.91724719 86.42724609 350.35473633 C86.47599142 320.7137862 86.52451717 291.07283573 86.57275391 261.43188477 C86.57424796 260.51385625 86.57574202 259.59582773 86.57728135 258.64998017 C86.59228873 249.42848827 86.60729174 240.20699636 86.62229155 230.98550445 C86.65283212 212.21001704 86.68340184 193.43452969 86.71398926 174.65904236 C86.71539475 173.79628849 86.71680024 172.93353463 86.71824832 172.04463671 C86.81167607 114.69642367 86.90579069 57.34821176 87 0 C101.52 0 116.04 0 131 0 C131.00496522 5.43536555 131.00496522 5.43536555 131.01003075 10.98053646 C131.06823407 74.44846091 131.12896635 137.91638254 131.20132446 201.3842926 C131.20245809 202.37924064 131.20359171 203.37418867 131.20475969 204.39928665 C131.22941631 226.02688287 131.25450943 247.65447857 131.28005161 269.28207376 C131.29257648 279.88962786 131.30500498 290.49718206 131.31738281 301.10473633 C131.3192328 302.68802896 131.3192328 302.68802896 131.32112016 304.3033073 C131.36098569 338.46042331 131.39449922 372.61754192 131.42468691 406.77466774 C131.45576585 441.90202144 131.49331663 477.0293625 131.53890612 512.1567005 C131.54535567 517.12846963 131.55173192 522.10023885 131.55806351 527.07200813 C131.55931181 528.05043686 131.56056012 529.0288656 131.56184625 530.03694368 C131.5816796 545.72972654 131.59477505 561.422508 131.60529328 577.11529956 C131.61603674 592.92649094 131.63401553 608.7376614 131.65916704 624.54883652 C131.67386013 633.92005874 131.68321885 643.29124898 131.68456683 652.66248282 C131.68602231 658.95120969 131.6948156 665.23990083 131.70915592 671.52861139 C131.71708708 675.09338947 131.72223006 678.65809771 131.71827881 682.22288411 C131.66023444 770.15260128 148.27679719 853.38608731 205 923 C205.63929443 923.79591553 205.63929443 923.79591553 206.29150391 924.60791016 C216.24855798 936.945917 227.70772012 947.90366197 239 959 C238.55052002 958.23091309 238.10104004 957.46182617 237.63793945 956.66943359 C235.7564627 953.44754529 233.87755982 950.22417237 232 947 C231.55317871 946.23333008 231.10635742 945.46666016 230.64599609 944.67675781 C213.12379383 914.41847639 201.52793757 881.80391723 193 848 C192.72849121 846.94490234 192.45698242 845.88980469 192.17724609 844.80273438 C175.00528973 777.47254353 173.51090998 707.56360518 173.64716669 638.49417771 C173.66327264 629.997238 173.66113365 621.50032242 173.65875761 613.00337119 C173.65485687 597.33452598 173.6646817 581.66571932 173.68280983 565.9968853 C173.70066728 550.521731 173.71212891 535.04659283 173.71536827 519.5714283 C173.71557449 518.60296745 173.71578071 517.6345066 173.71599318 516.63669845 C173.71700842 511.71676595 173.71791248 506.79683344 173.7187738 501.87690092 C173.72504604 467.1859081 173.74517628 432.49493616 173.77368164 397.80395508 C173.80131198 364.13859161 173.82252486 330.47323389 173.83520508 296.80786133 C173.83559966 295.76697292 173.83599424 294.7260845 173.83640077 293.65365402 C173.84035692 283.19897208 173.84418427 272.7442901 173.84791735 262.28960808 C173.85552244 240.99931056 173.86398619 219.70901341 173.87297058 198.41871643 C173.87358839 196.95093564 173.87358839 196.95093564 173.87421867 195.45350271 C173.90173979 130.30232633 173.9494989 65.15116208 174 0 C188.52 0 203.04 0 218 0 C218.00423194 3.57019612 218.00846388 7.14039225 218.01282406 10.81877613 C218.08706587 73.35902042 218.16253943 135.89926313 218.2436676 198.4394989 C218.24493928 199.42007345 218.24621096 200.40064799 218.24752118 201.41093692 C218.27517206 222.72666503 218.30303529 244.04239285 218.33111694 265.3581204 C218.34488891 275.81288425 218.358614 286.26764816 218.37231445 296.72241211 C218.37436058 298.28288982 218.37436058 298.28288982 218.37644804 299.87489234 C218.42055922 333.53301193 218.46158134 367.19113441 218.50098413 400.84925981 C218.54152639 435.46668115 218.58521983 470.08409714 218.63282111 504.70150952 C218.63955866 509.60236421 218.64626057 514.50321895 218.65294075 519.40407372 C218.65425648 520.3685361 218.65557221 521.33299848 218.6569278 522.32668699 C218.67792956 537.78847618 218.69565565 553.25026744 218.71212531 568.71206206 C218.72879481 584.29475888 218.74899008 599.87744808 218.77266841 615.46013585 C218.78537919 623.887555 218.79659413 632.31496925 218.80341911 640.7423954 C218.72456427 698.68790121 218.72456427 698.68790121 221.3125 756.5625 C221.37624817 757.49537842 221.43999634 758.42825684 221.50567627 759.3894043 C225.38636013 815.64569339 233.44761599 874.04425889 259 925 C259.36303223 925.73557129 259.72606445 926.47114258 260.10009766 927.22900391 C265.2955503 937.68637065 271.19496576 947.51246181 278 957 C278.60569824 957.85126465 278.60569824 957.85126465 279.22363281 958.71972656 C295.20802515 980.88832824 315.43267053 996.70191079 339 1010 C336.34267051 1006.54789845 333.54655524 1003.54293546 330.375 1000.5625 C274.63709543 945.15150396 267.27504787 841.7433734 262.3125 767.9375 C262.25147095 767.04662689 262.19044189 766.15575378 262.12756348 765.23788452 C259.51215424 726.34559711 259.85733465 687.36863416 259.88238889 648.41222017 C259.88772067 639.78735398 259.88704735 631.16249052 259.88625254 622.53762309 C259.88494753 606.62852785 259.8882459 590.71943681 259.89426994 574.81034279 C259.90020953 559.08358553 259.90404042 543.35683002 259.90512276 527.63007164 C259.9051915 526.64817131 259.90526024 525.66627099 259.90533106 524.65461611 C259.90566944 519.66699777 259.90597081 514.67937944 259.90625793 509.6917611 C259.90835217 474.46613707 259.91507216 439.24051532 259.92456055 404.01489258 C259.93376131 369.81730155 259.9408369 335.61971116 259.94506836 301.42211914 C259.94519989 300.36594286 259.94533141 299.30976658 259.94546692 298.22158495 C259.94678557 287.6139577 259.94806136 277.00633045 259.94930578 266.39870319 C259.95184124 244.79434112 259.95466249 223.18997908 259.95765686 201.58561707 C259.95779415 200.59252508 259.95793144 199.59943309 259.95807289 198.57624741 C259.96725634 132.38416398 259.98317692 66.19208187 260 0 C274.85 0 289.7 0 305 0 C305.00496522 6.00271623 305.00496522 6.00271623 305.01003075 12.12669945 C305.06824709 82.23580814 305.12899135 152.3449143 305.20132446 222.45401001 C305.2030249 224.10316376 305.2030249 224.10316376 305.20475969 225.78563376 C305.22941759 249.68580833 305.25451077 273.58598242 305.28005161 297.48615607 C305.29257623 309.20870682 305.30500478 320.93125768 305.31738281 332.65380859 C305.3192328 334.40350578 305.3192328 334.40350578 305.32112016 336.18855038 C305.36096978 373.92039448 305.39448944 411.65224093 305.42468691 449.38409388 C305.45578165 488.19496215 305.49334152 527.00581902 305.53890612 565.81667312 C305.54535545 571.31260282 305.55173174 576.8085326 305.55806351 582.30446243 C305.55931181 583.38602064 305.56056012 584.46757885 305.56184625 585.58191156 C305.58166235 602.91314285 305.59476827 620.24437288 305.60529328 637.57561203 C305.61604926 655.04710535 305.6340447 672.51857981 305.65916704 689.99005847 C305.67255661 699.43705877 305.68289256 708.88403667 305.68421364 718.33104706 C302.91496372 851.4698452 302.91496372 851.4698452 368.625 995.125 C385.95802397 1012.3002088 417.60872373 1035 443 1035 C442.03320312 1034.443125 441.06640625 1033.88625 440.0703125 1033.3125 C432.20840742 1028.72841392 424.88983149 1023.9877259 418 1018 C417.11957031 1017.26394531 416.23914063 1016.52789063 415.33203125 1015.76953125 C369.53330155 976.17203999 357.86904518 906.78977271 351.8125 850 C351.73368591 849.2864032 351.65487183 848.5728064 351.57366943 847.83758545 C350.92760207 841.90044027 350.45210791 835.95474701 350 830 C349.91555138 828.90249102 349.83110276 827.80498203 349.74409509 826.6742152 C347.22548221 791.97213334 347.72463054 757.15478088 347.76477809 722.38518267 C347.77544058 712.77635997 347.7740947 703.16754706 347.77250507 693.5587199 C347.76989505 675.83465772 347.77649179 658.11061061 347.78853989 640.38655281 C347.80041906 622.86564115 347.80808083 605.34473578 347.81024551 587.82382011 C347.81038299 586.72990066 347.81052047 585.6359812 347.81066212 584.50891267 C347.81133889 578.95228654 347.81194162 573.3956604 347.81251587 567.83903425 C347.81670433 528.5947523 347.83014431 489.35047853 347.84912109 450.10620117 C347.86752264 412.00724328 347.8816738 373.90828763 347.89013672 335.80932617 C347.89039977 334.63265747 347.89066282 333.45598876 347.89093385 332.24366343 C347.89357114 320.42587927 347.89612273 308.60809511 347.89861157 296.79031092 C347.90368248 272.72124537 347.90932498 248.65217996 347.91531372 224.58311462 C347.91572559 222.92353348 347.91572559 222.92353348 347.91614578 221.23042544 C347.93451268 147.48694684 347.96635384 73.743473 348 0 C362.52 0 377.04 0 392 0 C392 215.49 392 430.98 392 653 C607.82 653 823.64 653 1046 653 C1046 667.52 1046 682.04 1046 697 C830.18 697 614.36 697 392 697 C392 711.19 392 725.38 392 740 C607.82 740 823.64 740 1046 740 C1046 754.85 1046 769.7 1046 785 C830.51 785 615.02 785 393 785 C393.33 798.86 393.66 812.72 394 827 C609.16 827 824.32 827 1046 827 C1046 841.85 1046 856.7 1046 872 C831.83 872 617.66 872 397 872 C398.32 883.55 399.64 895.1 401 907 C401 909.31 401 911.62 401 914 C613.85 914 826.7 914 1046 914 C1046 928.85 1046 943.7 1046 959 C836.78 959 627.56 959 412 959 C416.83188091 972.93543704 416.83188091 972.93543704 422.6875 986.3125 C423.06455078 987.10849609 423.44160156 987.90449219 423.83007812 988.72460938 C425.62369662 992.45270645 427.45206766 995.724087 430 999 C430 999.66 430 1000.32 430 1001 C633.28 1001 836.56 1001 1046 1001 C1046 1015.85 1046 1030.7 1046 1046 C990.43243651 1046.03384457 934.86487321 1046.06610597 879.29730225 1046.08468628 C878.47365191 1046.08496239 877.65000157 1046.08523851 876.80139213 1046.08552299 C858.89720707 1046.09151011 840.9930219 1046.09705029 823.08883657 1046.10213066 C814.30743399 1046.10462513 805.52603144 1046.10721826 796.74462891 1046.10986328 C795.4339118 1046.11025556 795.4339118 1046.11025556 794.09671555 1046.11065576 C765.82186295 1046.11916416 737.5470184 1046.13417605 709.27217067 1046.15259444 C680.19329058 1046.17150198 651.11441493 1046.18378068 622.03552879 1046.18782998 C617.91948612 1046.18840621 613.80344347 1046.18905748 609.68740082 1046.18975449 C608.87737933 1046.18988933 608.06735784 1046.19002418 607.23279025 1046.19016311 C594.24296575 1046.19251791 581.25315508 1046.20177058 568.2633362 1046.21366407 C555.17434503 1046.22549893 542.08536744 1046.22992096 528.99637112 1046.22700275 C521.23932229 1046.22549244 513.48232349 1046.22943885 505.72528378 1046.24159509 C499.90116537 1046.25009064 494.07708734 1046.24786259 488.25296769 1046.24179779 C485.92004754 1046.24096288 483.58712297 1046.24341015 481.25421134 1046.24976636 C459.58200103 1046.30530598 437.86088693 1045.28481734 416.375 1042.3125 C415.1595752 1042.14588867 413.94415039 1041.97927734 412.69189453 1041.80761719 C387.65545675 1038.20511491 363.14958917 1032.51345046 339 1025 C337.98856934 1024.68981934 336.97713867 1024.37963867 335.93505859 1024.06005859 C299.78257289 1012.88027929 265.26517497 996.68305005 233 977 C231.55343716 976.13012228 230.10682692 975.26032338 228.66015625 974.390625 C209.41368443 962.69835798 191.22755182 949.30889667 174.13671875 934.6640625 C171.20052038 932.1540427 168.19987481 929.73070985 165.1875 927.3125 C161.16412114 924.04131806 157.48414517 920.59719896 153.875 916.87890625 C152.08762741 915.08780997 150.24171837 913.44831641 148.3125 911.8125 C140.2334973 904.8511459 132.61832295 897.13248162 125.72265625 889 C123.62627721 886.56610869 121.4360262 884.22865575 119.25 881.875 C114.01845598 876.13133195 109.24843536 870.09728109 104.51123047 863.94384766 C102.94504552 861.9293138 101.35260436 859.93802754 99.75390625 857.94921875 C86.45403422 841.30386306 74.54728037 823.51461561 64 805 C63.60119629 804.30245605 63.20239258 803.60491211 62.79150391 802.88623047 C57.21845841 793.09863616 51.92276565 783.19945979 47.00634766 773.06591797 C45.96826683 770.93485539 44.91195637 768.81339508 43.85546875 766.69140625 C37.34942386 753.46842592 32.03036768 739.84405381 27 726 C26.61312012 724.93813477 26.22624023 723.87626953 25.82763672 722.78222656 C16.75826956 697.56760527 10.24775749 671.56737022 5.625 645.1875 C5.39852783 643.91777344 5.17205566 642.64804687 4.9387207 641.33984375 C4.20367304 636.90248725 3.59499906 632.45790444 3 628 C2.87473289 627.09964866 2.74946578 626.19929731 2.62040269 625.27166259 C-0.93926067 598.63780308 -0.41444202 571.84391984 -0.35283282 545.02952152 C-0.33682527 537.77936242 -0.33885901 530.52923238 -0.34124239 523.27905995 C-0.3451556 509.90615472 -0.33526941 496.53329446 -0.31719017 483.1604023 C-0.2993665 469.94231505 -0.28787778 456.72424657 -0.28463173 443.50614738 C-0.28442551 442.68062929 -0.28421929 441.85511119 -0.28400682 441.00457739 C-0.28299166 436.81124831 -0.28208757 432.61791922 -0.2812262 428.4245901 C-0.27494483 398.81486703 -0.25478863 369.20516834 -0.22631836 339.59545898 C-0.19871249 310.85131967 -0.1774875 282.10718705 -0.16479492 253.36303711 C-0.16440034 252.47516304 -0.16400576 251.58728897 -0.16359923 250.67250963 C-0.15964327 241.75514814 -0.15581588 232.83778659 -0.15208265 223.920425 C-0.14447644 205.7588749 -0.13601269 187.59732523 -0.12702942 169.43577576 C-0.12661755 168.60095486 -0.12620568 167.76613396 -0.12578133 166.90601546 C-0.0982347 111.27066663 -0.05047328 55.63533213 0 0 Z M138 880 C138.33 880.99 138.66 881.98 139 883 C139 882.01 139 881.02 139 880 C138.67 880 138.34 880 138 880 Z " fill="#33B48A" transform="translate(0,0)"/>
</svg>
